<?xml version="1.0" encoding="utf-8"?>
<!-- Generator: Adobe Illustrator 25.2.1, SVG Export Plug-In . SVG Version: 6.00 Build 0)  -->
<svg version="1.1" id="Layer_1" xmlns="http://www.w3.org/2000/svg" xmlns:xlink="http://www.w3.org/1999/xlink" x="0px" y="0px"
	 viewBox="0 0 738 852" style="enable-background:new 0 0 738 852;" xml:space="preserve">
<style type="text/css">
	.st0{fill:none;stroke:#141227;stroke-miterlimit:10;}
	.st1{fill:#999999;}
	.st2{enable-background:new    ;}
	.st3{font-family:'MyriadPro-Bold';}
	.st4{font-size:120px;}
	.st5{stroke:#FFFF66;stroke-width:3;stroke-miterlimit:10;}
	.st6{fill:#FFFFFF;}
	.st7{font-size:46.0605px;}
	.st8{stroke:#FFFF66;stroke-width:10;stroke-miterlimit:10;}
	.st9{fill:#999999;enable-background:new    ;}
</style>
<polygon class="st0" points="718.9,224 369,22 369,22 19.1,224 19.1,628 369,830 718.9,628 "/>
<path class="st1" d="M736.4,638.4V214.1l-29.3-16.9L429.3,36.8L369,2l-60.3,34.8L30.9,197.2L1.6,214.1v424.3l29.3,16.9l281.3,162.4
	l56.9,32.8l56.9-32.8l281.3-162.4L736.4,638.4z M30.9,622.5V232.1L369,36.8l0,0L707.1,232v390.4L369,817.7L30.9,622.5z"/>
<text transform="matrix(1 0 0 1 52.2768 489.3906)" class="st2"><tspan x="0" y="0" class="st3 st4">infograph</tspan><tspan x="534.6" y="0" class="st5 st3 st4">iq</tspan></text>
<text transform="matrix(0.8562 -0.5167 0.5167 0.8562 389.9251 774.5341)" class="st6 st3 st7">marinebon.org</text>
<path class="st2" d="M216.2,245.3c-18.8,0-34,15.2-34,34s15.2,34,34,34s34-15.2,34-34C250.1,260.5,234.9,245.3,216.2,245.3z
	 M487.9,151.9c-18.8,0-34,15.2-34,34s15.2,34,34,34c18.8,0,34-15.2,34-34C521.8,167.1,506.6,151.9,487.9,151.9z"/>
<path class="st8" d="M487.9,321.7c-7.3,0-14.5,2.5-20.3,6.9L416.6,298c2.1-6.1,3.3-12.4,3.3-18.8c0-32.8-26.6-59.4-59.4-59.4
	c0,0,0,0-0.1,0c-4.4,0-8.7,0.5-12.9,1.5l-21.6-46.4c12.7-13.8,11.8-35.2-2-47.9c-13.8-12.7-35.2-11.8-47.9,2
	c-12.7,13.8-11.8,35.2,2,47.9c6.3,5.8,14.5,9,23,9c0.6,0,1.1-0.2,1.7-0.2l21.8,46.6c-14.2,10.8-23.5,27.8-23.5,47
	c-0.1,32.7,26.4,59.3,59.1,59.4c16.4,0,32.2-6.7,43.4-18.7l50.8,30.5c-2.8,18.5,9.9,35.8,28.4,38.6c18.5,2.8,35.8-9.9,38.6-28.4
	c2.8-18.5-9.9-35.8-28.4-38.6C491.3,321.8,489.6,321.7,487.9,321.7z M360.5,304.7c-14.1,0-25.5-11.4-25.5-25.5
	c0-14.1,11.4-25.5,25.5-25.5c14.1,0,25.5,11.4,25.5,25.5C386,293.3,374.6,304.7,360.5,304.7z"/>
<path class="st9" d="M500.5,673.2v12.3c0,3.4-2.9,6.2-6.6,6.2H303.6c-7.2,0-13.1-5.5-13.1-12.3V549.8c0-3.4,2.9-6.2,6.6-6.2h13.1
	c3.6,0,6.6,2.8,6.6,6.2V667h177.2C497.6,667,500.5,669.8,500.5,673.2z"/>
<path class="st5" d="M487.4,562.2v45.5c0,8.2-10.6,12.4-16.8,6.6l-13.3-12.5l-39.4,37c-5.1,4.8-13.4,4.8-18.6,0l-30.1-28.3
	l-18.9,17.8c-2.6,2.4-6.7,2.4-9.3,0c0,0,0,0,0,0l-9.3-8.7c-2.6-2.4-2.6-6.3,0-8.7c0,0,0,0,0,0l28.2-26.5c5.1-4.8,13.4-4.8,18.6,0
	l30.1,28.3l30.1-28.3l-13.3-12.5c-6.2-5.8-1.8-15.8,7-15.8h48.4C484.4,556,487.4,558.8,487.4,562.2z"/>
<text transform="matrix(0.8562 -0.5167 0.5167 0.8562 395.5074 793.181)" class="st1 st3 st7">marinebon.org</text>
<text transform="matrix(1 0 0 1 780 383)" class="st3 st4">Lorem ipsum</text>
</svg>
